<?xml version="1.0" encoding="utf-8" ?>
<svg baseProfile="full" height="100%" version="1.1" width="100%" xmlns="http://www.w3.org/2000/svg" xmlns:ev="http://www.w3.org/2001/xml-events" xmlns:xlink="http://www.w3.org/1999/xlink"><defs /><text style="font-size:20px; font-family:Courier" x="20" y="30">EMX_site1</text><text style="font-size:10px; font-family:Courier" x="22" y="48">1</text><text style="font-size:10px; font-family:Courier" x="352" y="48">23</text><text style="font-size:10px; font-family:Courier" x="157" y="48">10</text><text style="font-size:10px; font-family:Courier" x="307" y="48">20</text><rect fill="#F5F500" height="15" width="15" x="20" y="50" /><text fill="black" style="font-size:15px; font-family:Courier" x="23" y="62">G</text><rect fill="#FF5454" height="15" width="15" x="35" y="50" /><text fill="black" style="font-size:15px; font-family:Courier" x="38" y="62">A</text><rect fill="#F5F500" height="15" width="15" x="50" y="50" /><text fill="black" style="font-size:15px; font-family:Courier" x="53" y="62">G</text><rect fill="#00D118" height="15" width="15" x="65" y="50" /><text fill="black" style="font-size:15px; font-family:Courier" x="68" y="62">T</text><rect fill="#26A8FF" height="15" width="15" x="80" y="50" /><text fill="black" style="font-size:15px; font-family:Courier" x="83" y="62">C</text><rect fill="#26A8FF" height="15" width="15" x="95" y="50" /><text fill="black" style="font-size:15px; font-family:Courier" x="98" y="62">C</text><rect fill="#F5F500" height="15" width="15" x="110" y="50" /><text fill="black" style="font-size:15px; font-family:Courier" x="113" y="62">G</text><rect fill="#FF5454" height="15" width="15" x="125" y="50" /><text fill="black" style="font-size:15px; font-family:Courier" x="128" y="62">A</text><rect fill="#F5F500" height="15" width="15" x="140" y="50" /><text fill="black" style="font-size:15px; font-family:Courier" x="143" y="62">G</text><rect fill="#26A8FF" height="15" width="15" x="155" y="50" /><text fill="black" style="font-size:15px; font-family:Courier" x="158" y="62">C</text><rect fill="#FF5454" height="15" width="15" x="170" y="50" /><text fill="black" style="font-size:15px; font-family:Courier" x="173" y="62">A</text><rect fill="#F5F500" height="15" width="15" x="185" y="50" /><text fill="black" style="font-size:15px; font-family:Courier" x="188" y="62">G</text><rect fill="#FF5454" height="15" width="15" x="200" y="50" /><text fill="black" style="font-size:15px; font-family:Courier" x="203" y="62">A</text><rect fill="#FF5454" height="15" width="15" x="215" y="50" /><text fill="black" style="font-size:15px; font-family:Courier" x="218" y="62">A</text><rect fill="#F5F500" height="15" width="15" x="230" y="50" /><text fill="black" style="font-size:15px; font-family:Courier" x="233" y="62">G</text><rect fill="#FF5454" height="15" width="15" x="245" y="50" /><text fill="black" style="font-size:15px; font-family:Courier" x="248" y="62">A</text><rect fill="#FF5454" height="15" width="15" x="260" y="50" /><text fill="black" style="font-size:15px; font-family:Courier" x="263" y="62">A</text><rect fill="#F5F500" height="15" width="15" x="275" y="50" /><text fill="black" style="font-size:15px; font-family:Courier" x="278" y="62">G</text><rect fill="#FF5454" height="15" width="15" x="290" y="50" /><text fill="black" style="font-size:15px; font-family:Courier" x="293" y="62">A</text><rect fill="#FF5454" height="15" width="15" x="305" y="50" /><text fill="black" style="font-size:15px; font-family:Courier" x="308" y="62">A</text><rect fill="#B3B3B3" height="15" width="15" x="320" y="50" /><text fill="black" style="font-size:15px; font-family:Courier" x="323" y="62">N</text><rect fill="#F5F500" height="15" width="15" x="335" y="50" /><text fill="black" style="font-size:15px; font-family:Courier" x="338" y="62">G</text><rect fill="#F5F500" height="15" width="15" x="350" y="50" /><text fill="black" style="font-size:15px; font-family:Courier" x="353" y="62">G</text><text style="font-size:15px; font-family:Courier" x="381" y="62">Reads</text><text fill="black" style="font-size:10px; font-family:Courier" x="24.5" y="86">•</text><text fill="black" style="font-size:10px; font-family:Courier" x="39.5" y="86">•</text><text fill="black" style="font-size:10px; font-family:Courier" x="54.5" y="86">•</text><text fill="black" style="font-size:10px; font-family:Courier" x="69.5" y="86">•</text><text fill="black" style="font-size:10px; font-family:Courier" x="84.5" y="86">•</text><text fill="black" style="font-size:10px; font-family:Courier" x="99.5" y="86">•</text><text fill="black" style="font-size:10px; font-family:Courier" x="114.5" y="86">•</text><text fill="black" style="font-size:10px; font-family:Courier" x="129.5" y="86">•</text><text fill="black" style="font-size:10px; font-family:Courier" x="144.5" y="86">•</text><text fill="black" style="font-size:10px; font-family:Courier" x="159.5" y="86">•</text><text fill="black" style="font-size:10px; font-family:Courier" x="174.5" y="86">•</text><text fill="black" style="font-size:10px; font-family:Courier" x="189.5" y="86">•</text><text fill="black" style="font-size:10px; font-family:Courier" x="204.5" y="86">•</text><text fill="black" style="font-size:10px; font-family:Courier" x="219.5" y="86">•</text><text fill="black" style="font-size:10px; font-family:Courier" x="234.5" y="86">•</text><text fill="black" style="font-size:10px; font-family:Courier" x="249.5" y="86">•</text><text fill="black" style="font-size:10px; font-family:Courier" x="264.5" y="86">•</text><text fill="black" style="font-size:10px; font-family:Courier" x="279.5" y="86">•</text><text fill="black" style="font-size:10px; font-family:Courier" x="294.5" y="86">•</text><text fill="black" style="font-size:10px; font-family:Courier" x="309.5" y="86">•</text><text fill="black" style="font-size:10px; font-family:Courier" x="324.5" y="86">•</text><text fill="black" style="font-size:10px; font-family:Courier" x="339.5" y="86">•</text><text fill="black" style="font-size:10px; font-family:Courier" x="354.5" y="86">•</text><text fill="black" style="font-size:15px; font-family:Courier" x="380" y="88">4572</text><text fill="black" style="font-size:10px; font-family:Courier" x="24.5" y="101">•</text><text fill="black" style="font-size:10px; font-family:Courier" x="39.5" y="101">•</text><text fill="black" style="font-size:10px; font-family:Courier" x="54.5" y="101">•</text><text fill="black" style="font-size:10px; font-family:Courier" x="69.5" y="101">•</text><rect fill="#00D118" height="15" width="15" x="80" y="90" /><text fill="black" style="font-size:15px; font-family:Courier" x="83" y="102">T</text><rect fill="#FF5454" height="15" width="15" x="95" y="90" /><text fill="black" style="font-size:15px; font-family:Courier" x="98" y="102">A</text><text fill="black" style="font-size:10px; font-family:Courier" x="114.5" y="101">•</text><text fill="black" style="font-size:10px; font-family:Courier" x="129.5" y="101">•</text><text fill="black" style="font-size:10px; font-family:Courier" x="144.5" y="101">•</text><text fill="black" style="font-size:10px; font-family:Courier" x="159.5" y="101">•</text><text fill="black" style="font-size:10px; font-family:Courier" x="174.5" y="101">•</text><text fill="black" style="font-size:10px; font-family:Courier" x="189.5" y="101">•</text><text fill="black" style="font-size:10px; font-family:Courier" x="204.5" y="101">•</text><text fill="black" style="font-size:10px; font-family:Courier" x="219.5" y="101">•</text><text fill="black" style="font-size:10px; font-family:Courier" x="234.5" y="101">•</text><text fill="black" style="font-size:10px; font-family:Courier" x="249.5" y="101">•</text><text fill="black" style="font-size:10px; font-family:Courier" x="264.5" y="101">•</text><text fill="black" style="font-size:10px; font-family:Courier" x="279.5" y="101">•</text><text fill="black" style="font-size:10px; font-family:Courier" x="294.5" y="101">•</text><text fill="black" style="font-size:10px; font-family:Courier" x="309.5" y="101">•</text><text fill="black" style="font-size:10px; font-family:Courier" x="324.5" y="101">•</text><text fill="black" style="font-size:10px; font-family:Courier" x="339.5" y="101">•</text><text fill="black" style="font-size:10px; font-family:Courier" x="354.5" y="101">•</text><text fill="black" style="font-size:15px; font-family:Courier" x="380" y="103">3180</text><text fill="black" style="font-size:10px; font-family:Courier" x="24.5" y="116">•</text><text fill="black" style="font-size:10px; font-family:Courier" x="39.5" y="116">•</text><text fill="black" style="font-size:10px; font-family:Courier" x="54.5" y="116">•</text><text fill="black" style="font-size:10px; font-family:Courier" x="69.5" y="116">•</text><text fill="black" style="font-size:10px; font-family:Courier" x="84.5" y="116">•</text><rect fill="#00D118" height="15" width="15" x="95" y="105" /><text fill="black" style="font-size:15px; font-family:Courier" x="98" y="117">T</text><rect fill="#FF5454" height="15" width="15" x="110" y="105" /><text fill="black" style="font-size:15px; font-family:Courier" x="113" y="117">A</text><text fill="black" style="font-size:10px; font-family:Courier" x="129.5" y="116">•</text><text fill="black" style="font-size:10px; font-family:Courier" x="144.5" y="116">•</text><text fill="black" style="font-size:10px; font-family:Courier" x="159.5" y="116">•</text><text fill="black" style="font-size:10px; font-family:Courier" x="174.5" y="116">•</text><text fill="black" style="font-size:10px; font-family:Courier" x="189.5" y="116">•</text><text fill="black" style="font-size:10px; font-family:Courier" x="204.5" y="116">•</text><text fill="black" style="font-size:10px; font-family:Courier" x="219.5" y="116">•</text><text fill="black" style="font-size:10px; font-family:Courier" x="234.5" y="116">•</text><text fill="black" style="font-size:10px; font-family:Courier" x="249.5" y="116">•</text><text fill="black" style="font-size:10px; font-family:Courier" x="264.5" y="116">•</text><text fill="black" style="font-size:10px; font-family:Courier" x="279.5" y="116">•</text><text fill="black" style="font-size:10px; font-family:Courier" x="294.5" y="116">•</text><text fill="black" style="font-size:10px; font-family:Courier" x="309.5" y="116">•</text><text fill="black" style="font-size:10px; font-family:Courier" x="324.5" y="116">•</text><rect fill="#FF5454" height="15" width="15" x="335" y="105" /><text fill="black" style="font-size:15px; font-family:Courier" x="338" y="117">A</text><text fill="black" style="font-size:10px; font-family:Courier" x="354.5" y="116">•</text><text fill="black" style="font-size:15px; font-family:Courier" x="380" y="118">1461</text><text fill="black" style="font-size:10px; font-family:Courier" x="24.5" y="131">•</text><text fill="black" style="font-size:10px; font-family:Courier" x="39.5" y="131">•</text><text fill="black" style="font-size:10px; font-family:Courier" x="54.5" y="131">•</text><rect fill="#F5F500" height="15" width="15" x="65" y="120" /><text fill="black" style="font-size:15px; font-family:Courier" x="68" y="132">G</text><text fill="black" style="font-size:10px; font-family:Courier" x="84.5" y="131">•</text><text fill="black" style="font-size:10px; font-family:Courier" x="99.5" y="131">•</text><text fill="black" style="font-size:10px; font-family:Courier" x="114.5" y="131">•</text><text fill="black" style="font-size:10px; font-family:Courier" x="129.5" y="131">•</text><text fill="black" style="font-size:10px; font-family:Courier" x="144.5" y="131">•</text><text fill="black" style="font-size:10px; font-family:Courier" x="159.5" y="131">•</text><text fill="black" style="font-size:10px; font-family:Courier" x="174.5" y="131">•</text><text fill="black" style="font-size:10px; font-family:Courier" x="189.5" y="131">•</text><text fill="black" style="font-size:10px; font-family:Courier" x="204.5" y="131">•</text><text fill="black" style="font-size:10px; font-family:Courier" x="219.5" y="131">•</text><text fill="black" style="font-size:10px; font-family:Courier" x="234.5" y="131">•</text><text fill="black" style="font-size:10px; font-family:Courier" x="249.5" y="131">•</text><text fill="black" style="font-size:10px; font-family:Courier" x="264.5" y="131">•</text><rect fill="#FF5454" height="15" width="15" x="275" y="120" /><text fill="black" style="font-size:15px; font-family:Courier" x="278" y="132">A</text><rect fill="#F5F500" height="15" width="15" x="290" y="120" /><text fill="black" style="font-size:15px; font-family:Courier" x="293" y="132">G</text><text fill="black" style="font-size:10px; font-family:Courier" x="309.5" y="131">•</text><text fill="black" style="font-size:10px; font-family:Courier" x="324.5" y="131">•</text><text fill="black" style="font-size:10px; font-family:Courier" x="339.5" y="131">•</text><text fill="black" style="font-size:10px; font-family:Courier" x="354.5" y="131">•</text><text fill="black" style="font-size:15px; font-family:Courier" x="380" y="133">708</text><text fill="black" style="font-size:10px; font-family:Courier" x="24.5" y="146">•</text><text fill="black" style="font-size:10px; font-family:Courier" x="39.5" y="146">•</text><text fill="black" style="font-size:10px; font-family:Courier" x="54.5" y="146">•</text><text fill="black" style="font-size:10px; font-family:Courier" x="69.5" y="146">•</text><text fill="black" style="font-size:10px; font-family:Courier" x="84.5" y="146">•</text><text fill="black" style="font-size:10px; font-family:Courier" x="99.5" y="146">•</text><rect fill="#00D118" height="15" width="15" x="110" y="135" /><text fill="black" style="font-size:15px; font-family:Courier" x="113" y="147">T</text><text fill="black" style="font-size:10px; font-family:Courier" x="129.5" y="146">•</text><text fill="black" style="font-size:10px; font-family:Courier" x="144.5" y="146">•</text><text fill="black" style="font-size:10px; font-family:Courier" x="159.5" y="146">•</text><text fill="black" style="font-size:10px; font-family:Courier" x="174.5" y="146">•</text><text fill="black" style="font-size:10px; font-family:Courier" x="189.5" y="146">•</text><rect fill="#F5F500" height="15" width="15" x="200" y="135" /><text fill="black" style="font-size:15px; font-family:Courier" x="203" y="147">G</text><text fill="black" style="font-size:10px; font-family:Courier" x="219.5" y="146">•</text><text fill="black" style="font-size:10px; font-family:Courier" x="234.5" y="146">•</text><text fill="black" style="font-size:10px; font-family:Courier" x="249.5" y="146">•</text><text fill="black" style="font-size:10px; font-family:Courier" x="264.5" y="146">•</text><text fill="black" style="font-size:10px; font-family:Courier" x="279.5" y="146">•</text><text fill="black" style="font-size:10px; font-family:Courier" x="294.5" y="146">•</text><text fill="black" style="font-size:10px; font-family:Courier" x="309.5" y="146">•</text><text fill="black" style="font-size:10px; font-family:Courier" x="324.5" y="146">•</text><rect fill="#FF5454" height="15" width="15" x="335" y="135" /><text fill="black" style="font-size:15px; font-family:Courier" x="338" y="147">A</text><text fill="black" style="font-size:10px; font-family:Courier" x="354.5" y="146">•</text><text fill="black" style="font-size:15px; font-family:Courier" x="380" y="148">393</text><rect fill="#FF5454" height="15" width="15" x="20" y="150" /><text fill="black" style="font-size:15px; font-family:Courier" x="23" y="162">A</text><text fill="black" style="font-size:10px; font-family:Courier" x="39.5" y="161">•</text><text fill="black" style="font-size:10px; font-family:Courier" x="54.5" y="161">•</text><text fill="black" style="font-size:10px; font-family:Courier" x="69.5" y="161">•</text><text fill="black" style="font-size:10px; font-family:Courier" x="84.5" y="161">•</text><rect fill="#00D118" height="15" width="15" x="95" y="150" /><text fill="black" style="font-size:15px; font-family:Courier" x="98" y="162">T</text><text fill="black" style="font-size:10px; font-family:Courier" x="114.5" y="161">•</text><text fill="black" style="font-size:10px; font-family:Courier" x="129.5" y="161">•</text><text fill="black" style="font-size:10px; font-family:Courier" x="144.5" y="161">•</text><text fill="black" style="font-size:10px; font-family:Courier" x="159.5" y="161">•</text><text fill="black" style="font-size:10px; font-family:Courier" x="174.5" y="161">•</text><rect fill="#26A8FF" height="15" width="15" x="185" y="150" /><text fill="black" style="font-size:15px; font-family:Courier" x="188" y="162">C</text><text fill="black" style="font-size:10px; font-family:Courier" x="204.5" y="161">•</text><text fill="black" style="font-size:10px; font-family:Courier" x="219.5" y="161">•</text><text fill="black" style="font-size:10px; font-family:Courier" x="234.5" y="161">•</text><text fill="black" style="font-size:10px; font-family:Courier" x="249.5" y="161">•</text><text fill="black" style="font-size:10px; font-family:Courier" x="264.5" y="161">•</text><text fill="black" style="font-size:10px; font-family:Courier" x="279.5" y="161">•</text><text fill="black" style="font-size:10px; font-family:Courier" x="294.5" y="161">•</text><text fill="black" style="font-size:10px; font-family:Courier" x="309.5" y="161">•</text><text fill="black" style="font-size:10px; font-family:Courier" x="324.5" y="161">•</text><text fill="black" style="font-size:10px; font-family:Courier" x="339.5" y="161">•</text><text fill="black" style="font-size:10px; font-family:Courier" x="354.5" y="161">•</text><text fill="black" style="font-size:15px; font-family:Courier" x="380" y="163">261</text><text fill="black" style="font-size:10px; font-family:Courier" x="24.5" y="176">•</text><text fill="black" style="font-size:10px; font-family:Courier" x="39.5" y="176">•</text><text fill="black" style="font-size:10px; font-family:Courier" x="54.5" y="176">•</text><text fill="black" style="font-size:10px; font-family:Courier" x="69.5" y="176">•</text><text fill="black" style="font-size:10px; font-family:Courier" x="84.5" y="176">•</text><text fill="black" style="font-size:10px; font-family:Courier" x="99.5" y="176">•</text><text fill="black" style="font-size:10px; font-family:Courier" x="114.5" y="176">•</text><rect fill="#F5F500" height="15" width="15" x="125" y="165" /><text fill="black" style="font-size:15px; font-family:Courier" x="128" y="177">G</text><text fill="black" style="font-size:10px; font-family:Courier" x="144.5" y="176">•</text><rect fill="#FF5454" height="15" width="15" x="155" y="165" /><text fill="black" style="font-size:15px; font-family:Courier" x="158" y="177">A</text><text fill="black" style="font-size:10px; font-family:Courier" x="174.5" y="176">•</text><text fill="black" style="font-size:10px; font-family:Courier" x="189.5" y="176">•</text><rect fill="#F5F500" height="15" width="15" x="200" y="165" /><text fill="black" style="font-size:15px; font-family:Courier" x="203" y="177">G</text><text fill="black" style="font-size:10px; font-family:Courier" x="219.5" y="176">•</text><text fill="black" style="font-size:10px; font-family:Courier" x="234.5" y="176">•</text><text fill="black" style="font-size:10px; font-family:Courier" x="249.5" y="176">•</text><text fill="black" style="font-size:10px; font-family:Courier" x="264.5" y="176">•</text><text fill="black" style="font-size:10px; font-family:Courier" x="279.5" y="176">•</text><text fill="black" style="font-size:10px; font-family:Courier" x="294.5" y="176">•</text><text fill="black" style="font-size:10px; font-family:Courier" x="309.5" y="176">•</text><text fill="black" style="font-size:10px; font-family:Courier" x="324.5" y="176">•</text><text fill="black" style="font-size:10px; font-family:Courier" x="339.5" y="176">•</text><text fill="black" style="font-size:10px; font-family:Courier" x="354.5" y="176">•</text><text fill="black" style="font-size:15px; font-family:Courier" x="380" y="178">218</text><text fill="black" style="font-size:10px; font-family:Courier" x="24.5" y="191">•</text><text fill="black" style="font-size:10px; font-family:Courier" x="39.5" y="191">•</text><text fill="black" style="font-size:10px; font-family:Courier" x="54.5" y="191">•</text><rect fill="#26A8FF" height="15" width="15" x="65" y="180" /><text fill="black" style="font-size:15px; font-family:Courier" x="68" y="192">C</text><text fill="black" style="font-size:10px; font-family:Courier" x="84.5" y="191">•</text><rect fill="#F5F500" height="15" width="15" x="95" y="180" /><text fill="black" style="font-size:15px; font-family:Courier" x="98" y="192">G</text><text fill="black" style="font-size:10px; font-family:Courier" x="114.5" y="191">•</text><text fill="black" style="font-size:10px; font-family:Courier" x="129.5" y="191">•</text><text fill="black" style="font-size:10px; font-family:Courier" x="144.5" y="191">•</text><text fill="black" style="font-size:10px; font-family:Courier" x="159.5" y="191">•</text><text fill="black" style="font-size:10px; font-family:Courier" x="174.5" y="191">•</text><text fill="black" style="font-size:10px; font-family:Courier" x="189.5" y="191">•</text><text fill="black" style="font-size:10px; font-family:Courier" x="204.5" y="191">•</text><text fill="black" style="font-size:10px; font-family:Courier" x="219.5" y="191">•</text><text fill="black" style="font-size:10px; font-family:Courier" x="234.5" y="191">•</text><text fill="black" style="font-size:10px; font-family:Courier" x="249.5" y="191">•</text><text fill="black" style="font-size:10px; font-family:Courier" x="264.5" y="191">•</text><text fill="black" style="font-size:10px; font-family:Courier" x="279.5" y="191">•</text><rect fill="#F5F500" height="15" width="15" x="290" y="180" /><text fill="black" style="font-size:15px; font-family:Courier" x="293" y="192">G</text><text fill="black" style="font-size:10px; font-family:Courier" x="309.5" y="191">•</text><text fill="black" style="font-size:10px; font-family:Courier" x="324.5" y="191">•</text><text fill="black" style="font-size:10px; font-family:Courier" x="339.5" y="191">•</text><text fill="black" style="font-size:10px; font-family:Courier" x="354.5" y="191">•</text><text fill="black" style="font-size:15px; font-family:Courier" x="380" y="193">143</text><rect fill="#FF5454" height="15" width="15" x="20" y="195" /><text fill="black" style="font-size:15px; font-family:Courier" x="23" y="207">A</text><text fill="black" style="font-size:10px; font-family:Courier" x="39.5" y="206">•</text><text fill="black" style="font-size:10px; font-family:Courier" x="54.5" y="206">•</text><text fill="black" style="font-size:10px; font-family:Courier" x="69.5" y="206">•</text><text fill="black" style="font-size:10px; font-family:Courier" x="84.5" y="206">•</text><text fill="black" style="font-size:10px; font-family:Courier" x="99.5" y="206">•</text><text fill="black" style="font-size:10px; font-family:Courier" x="114.5" y="206">•</text><text fill="black" style="font-size:10px; font-family:Courier" x="129.5" y="206">•</text><text fill="black" style="font-size:10px; font-family:Courier" x="144.5" y="206">•</text><rect fill="#F5F500" height="15" width="15" x="155" y="195" /><text fill="black" style="font-size:15px; font-family:Courier" x="158" y="207">G</text><text fill="black" style="font-size:10px; font-family:Courier" x="174.5" y="206">•</text><text fill="black" style="font-size:10px; font-family:Courier" x="189.5" y="206">•</text><text fill="black" style="font-size:10px; font-family:Courier" x="204.5" y="206">•</text><rect fill="#F5F500" height="15" width="15" x="215" y="195" /><text fill="black" style="font-size:15px; font-family:Courier" x="218" y="207">G</text><text fill="black" style="font-size:10px; font-family:Courier" x="234.5" y="206">•</text><text fill="black" style="font-size:10px; font-family:Courier" x="249.5" y="206">•</text><text fill="black" style="font-size:10px; font-family:Courier" x="264.5" y="206">•</text><text fill="black" style="font-size:10px; font-family:Courier" x="279.5" y="206">•</text><text fill="black" style="font-size:10px; font-family:Courier" x="294.5" y="206">•</text><text fill="black" style="font-size:10px; font-family:Courier" x="309.5" y="206">•</text><text fill="black" style="font-size:10px; font-family:Courier" x="324.5" y="206">•</text><text fill="black" style="font-size:10px; font-family:Courier" x="339.5" y="206">•</text><text fill="black" style="font-size:10px; font-family:Courier" x="354.5" y="206">•</text><text fill="black" style="font-size:15px; font-family:Courier" x="380" y="208">105</text><text fill="black" style="font-size:10px; font-family:Courier" x="24.5" y="221">•</text><text fill="black" style="font-size:10px; font-family:Courier" x="39.5" y="221">•</text><rect fill="#FF5454" height="15" width="15" x="50" y="210" /><text fill="black" style="font-size:15px; font-family:Courier" x="53" y="222">A</text><text fill="black" style="font-size:10px; font-family:Courier" x="69.5" y="221">•</text><text fill="black" style="font-size:10px; font-family:Courier" x="84.5" y="221">•</text><text fill="black" style="font-size:10px; font-family:Courier" x="99.5" y="221">•</text><rect fill="#FF5454" height="15" width="15" x="110" y="210" /><text fill="black" style="font-size:15px; font-family:Courier" x="113" y="222">A</text><text fill="black" style="font-size:10px; font-family:Courier" x="129.5" y="221">•</text><text fill="black" style="font-size:10px; font-family:Courier" x="144.5" y="221">•</text><text fill="black" style="font-size:10px; font-family:Courier" x="159.5" y="221">•</text><text fill="black" style="font-size:10px; font-family:Courier" x="174.5" y="221">•</text><text fill="black" style="font-size:10px; font-family:Courier" x="189.5" y="221">•</text><rect fill="#F5F500" height="15" width="15" x="200" y="210" /><text fill="black" style="font-size:15px; font-family:Courier" x="203" y="222">G</text><text fill="black" style="font-size:10px; font-family:Courier" x="219.5" y="221">•</text><text fill="black" style="font-size:10px; font-family:Courier" x="234.5" y="221">•</text><text fill="black" style="font-size:10px; font-family:Courier" x="249.5" y="221">•</text><text fill="black" style="font-size:10px; font-family:Courier" x="264.5" y="221">•</text><text fill="black" style="font-size:10px; font-family:Courier" x="279.5" y="221">•</text><text fill="black" style="font-size:10px; font-family:Courier" x="294.5" y="221">•</text><text fill="black" style="font-size:10px; font-family:Courier" x="309.5" y="221">•</text><text fill="black" style="font-size:10px; font-family:Courier" x="324.5" y="221">•</text><text fill="black" style="font-size:10px; font-family:Courier" x="339.5" y="221">•</text><rect fill="#FF5454" height="15" width="15" x="350" y="210" /><text fill="black" style="font-size:15px; font-family:Courier" x="353" y="222">A</text><text fill="black" style="font-size:15px; font-family:Courier" x="380" y="223">70</text><rect fill="#FF5454" height="15" width="15" x="20" y="225" /><text fill="black" style="font-size:15px; font-family:Courier" x="23" y="237">A</text><rect fill="#26A8FF" height="15" width="15" x="35" y="225" /><text fill="black" style="font-size:15px; font-family:Courier" x="38" y="237">C</text><text fill="black" style="font-size:10px; font-family:Courier" x="54.5" y="236">•</text><text fill="black" style="font-size:10px; font-family:Courier" x="69.5" y="236">•</text><text fill="black" style="font-size:10px; font-family:Courier" x="84.5" y="236">•</text><rect fill="#00D118" height="15" width="15" x="95" y="225" /><text fill="black" style="font-size:15px; font-family:Courier" x="98" y="237">T</text><text fill="black" style="font-size:10px; font-family:Courier" x="114.5" y="236">•</text><text fill="black" style="font-size:10px; font-family:Courier" x="129.5" y="236">•</text><text fill="black" style="font-size:10px; font-family:Courier" x="144.5" y="236">•</text><text fill="black" style="font-size:10px; font-family:Courier" x="159.5" y="236">•</text><text fill="black" style="font-size:10px; font-family:Courier" x="174.5" y="236">•</text><text fill="black" style="font-size:10px; font-family:Courier" x="189.5" y="236">•</text><text fill="black" style="font-size:10px; font-family:Courier" x="204.5" y="236">•</text><text fill="black" style="font-size:10px; font-family:Courier" x="219.5" y="236">•</text><text fill="black" style="font-size:10px; font-family:Courier" x="234.5" y="236">•</text><text fill="black" style="font-size:10px; font-family:Courier" x="249.5" y="236">•</text><text fill="black" style="font-size:10px; font-family:Courier" x="264.5" y="236">•</text><text fill="black" style="font-size:10px; font-family:Courier" x="279.5" y="236">•</text><text fill="black" style="font-size:10px; font-family:Courier" x="294.5" y="236">•</text><text fill="black" style="font-size:10px; font-family:Courier" x="309.5" y="236">•</text><text fill="black" style="font-size:10px; font-family:Courier" x="324.5" y="236">•</text><text fill="black" style="font-size:10px; font-family:Courier" x="339.5" y="236">•</text><text fill="black" style="font-size:10px; font-family:Courier" x="354.5" y="236">•</text><text fill="black" style="font-size:15px; font-family:Courier" x="380" y="238">38</text><text fill="black" style="font-size:10px; font-family:Courier" x="24.5" y="251">•</text><text fill="black" style="font-size:10px; font-family:Courier" x="39.5" y="251">•</text><text fill="black" style="font-size:10px; font-family:Courier" x="54.5" y="251">•</text><text fill="black" style="font-size:10px; font-family:Courier" x="69.5" y="251">•</text><rect fill="#FF5454" height="15" width="15" x="80" y="240" /><text fill="black" style="font-size:15px; font-family:Courier" x="83" y="252">A</text><rect fill="#F5F500" height="15" width="15" x="95" y="240" /><text fill="black" style="font-size:15px; font-family:Courier" x="98" y="252">G</text><text fill="black" style="font-size:10px; font-family:Courier" x="114.5" y="251">•</text><text fill="black" style="font-size:10px; font-family:Courier" x="129.5" y="251">•</text><text fill="black" style="font-size:10px; font-family:Courier" x="144.5" y="251">•</text><text fill="black" style="font-size:10px; font-family:Courier" x="159.5" y="251">•</text><text fill="black" style="font-size:10px; font-family:Courier" x="174.5" y="251">•</text><text fill="black" style="font-size:10px; font-family:Courier" x="189.5" y="251">•</text><rect fill="#F5F500" height="15" width="15" x="200" y="240" /><text fill="black" style="font-size:15px; font-family:Courier" x="203" y="252">G</text><text fill="black" style="font-size:10px; font-family:Courier" x="219.5" y="251">•</text><text fill="black" style="font-size:10px; font-family:Courier" x="234.5" y="251">•</text><text fill="black" style="font-size:10px; font-family:Courier" x="249.5" y="251">•</text><text fill="black" style="font-size:10px; font-family:Courier" x="264.5" y="251">•</text><text fill="black" style="font-size:10px; font-family:Courier" x="279.5" y="251">•</text><text fill="black" style="font-size:10px; font-family:Courier" x="294.5" y="251">•</text><text fill="black" style="font-size:10px; font-family:Courier" x="309.5" y="251">•</text><text fill="black" style="font-size:10px; font-family:Courier" x="324.5" y="251">•</text><text fill="black" style="font-size:10px; font-family:Courier" x="339.5" y="251">•</text><rect fill="#FF5454" height="15" width="15" x="350" y="240" /><text fill="black" style="font-size:15px; font-family:Courier" x="353" y="252">A</text><text fill="black" style="font-size:15px; font-family:Courier" x="380" y="253">7</text><rect fill="#FF5454" height="15" width="15" x="20" y="255" /><text fill="black" style="font-size:15px; font-family:Courier" x="23" y="267">A</text><text fill="black" style="font-size:10px; font-family:Courier" x="39.5" y="266">•</text><text fill="black" style="font-size:10px; font-family:Courier" x="54.5" y="266">•</text><text fill="black" style="font-size:10px; font-family:Courier" x="69.5" y="266">•</text><text fill="black" style="font-size:10px; font-family:Courier" x="84.5" y="266">•</text><text fill="black" style="font-size:10px; font-family:Courier" x="99.5" y="266">•</text><rect fill="#26A8FF" height="15" width="15" x="110" y="255" /><text fill="black" style="font-size:15px; font-family:Courier" x="113" y="267">C</text><rect fill="#F5F500" height="15" width="15" x="125" y="255" /><text fill="black" style="font-size:15px; font-family:Courier" x="128" y="267">G</text><text fill="black" style="font-size:10px; font-family:Courier" x="144.5" y="266">•</text><text fill="black" style="font-size:10px; font-family:Courier" x="159.5" y="266">•</text><text fill="black" style="font-size:10px; font-family:Courier" x="174.5" y="266">•</text><text fill="black" style="font-size:10px; font-family:Courier" x="189.5" y="266">•</text><text fill="black" style="font-size:10px; font-family:Courier" x="204.5" y="266">•</text><rect fill="#F5F500" height="15" width="15" x="215" y="255" /><text fill="black" style="font-size:15px; font-family:Courier" x="218" y="267">G</text><text fill="black" style="font-size:10px; font-family:Courier" x="234.5" y="266">•</text><text fill="black" style="font-size:10px; font-family:Courier" x="249.5" y="266">•</text><text fill="black" style="font-size:10px; font-family:Courier" x="264.5" y="266">•</text><text fill="black" style="font-size:10px; font-family:Courier" x="279.5" y="266">•</text><text fill="black" style="font-size:10px; font-family:Courier" x="294.5" y="266">•</text><text fill="black" style="font-size:10px; font-family:Courier" x="309.5" y="266">•</text><text fill="black" style="font-size:10px; font-family:Courier" x="324.5" y="266">•</text><text fill="black" style="font-size:10px; font-family:Courier" x="339.5" y="266">•</text><text fill="black" style="font-size:10px; font-family:Courier" x="354.5" y="266">•</text><text fill="black" style="font-size:15px; font-family:Courier" x="380" y="268">7</text><rect fill="#00D118" height="15" width="15" x="20" y="270" /><text fill="black" style="font-size:15px; font-family:Courier" x="23" y="282">T</text><rect fill="#26A8FF" height="15" width="15" x="35" y="270" /><text fill="black" style="font-size:15px; font-family:Courier" x="38" y="282">C</text><rect fill="#FF5454" height="15" width="15" x="50" y="270" /><text fill="black" style="font-size:15px; font-family:Courier" x="53" y="282">A</text><text fill="black" style="font-size:10px; font-family:Courier" x="69.5" y="281">•</text><text fill="black" style="font-size:10px; font-family:Courier" x="84.5" y="281">•</text><text fill="black" style="font-size:10px; font-family:Courier" x="99.5" y="281">•</text><rect fill="#FF5454" height="15" width="15" x="110" y="270" /><text fill="black" style="font-size:15px; font-family:Courier" x="113" y="282">A</text><text fill="black" style="font-size:10px; font-family:Courier" x="129.5" y="281">•</text><text fill="black" style="font-size:10px; font-family:Courier" x="144.5" y="281">•</text><text fill="black" style="font-size:10px; font-family:Courier" x="159.5" y="281">•</text><text fill="black" style="font-size:10px; font-family:Courier" x="174.5" y="281">•</text><text fill="black" style="font-size:10px; font-family:Courier" x="189.5" y="281">•</text><text fill="black" style="font-size:10px; font-family:Courier" x="204.5" y="281">•</text><text fill="black" style="font-size:10px; font-family:Courier" x="219.5" y="281">•</text><text fill="black" style="font-size:10px; font-family:Courier" x="234.5" y="281">•</text><text fill="black" style="font-size:10px; font-family:Courier" x="249.5" y="281">•</text><text fill="black" style="font-size:10px; font-family:Courier" x="264.5" y="281">•</text><text fill="black" style="font-size:10px; font-family:Courier" x="279.5" y="281">•</text><text fill="black" style="font-size:10px; font-family:Courier" x="294.5" y="281">•</text><text fill="black" style="font-size:10px; font-family:Courier" x="309.5" y="281">•</text><text fill="black" style="font-size:10px; font-family:Courier" x="324.5" y="281">•</text><rect fill="#FF5454" height="15" width="15" x="335" y="270" /><text fill="black" style="font-size:15px; font-family:Courier" x="338" y="282">A</text><text fill="black" style="font-size:10px; font-family:Courier" x="354.5" y="281">•</text><text fill="black" style="font-size:15px; font-family:Courier" x="380" y="283">5</text><text fill="black" style="font-size:10px; font-family:Courier" x="24.5" y="296">•</text><text fill="black" style="font-size:10px; font-family:Courier" x="39.5" y="296">•</text><text fill="black" style="font-size:10px; font-family:Courier" x="54.5" y="296">•</text><rect fill="#26A8FF" height="15" width="15" x="65" y="285" /><text fill="black" style="font-size:15px; font-family:Courier" x="68" y="297">C</text><rect fill="#FF5454" height="15" width="15" x="80" y="285" /><text fill="black" style="font-size:15px; font-family:Courier" x="83" y="297">A</text><text fill="black" style="font-size:10px; font-family:Courier" x="99.5" y="296">•</text><text fill="black" style="font-size:10px; font-family:Courier" x="114.5" y="296">•</text><text fill="black" style="font-size:10px; font-family:Courier" x="129.5" y="296">•</text><text fill="black" style="font-size:10px; font-family:Courier" x="144.5" y="296">•</text><text fill="black" style="font-size:10px; font-family:Courier" x="159.5" y="296">•</text><text fill="black" style="font-size:10px; font-family:Courier" x="174.5" y="296">•</text><rect fill="#FF5454" height="15" width="15" x="185" y="285" /><text fill="black" style="font-size:15px; font-family:Courier" x="188" y="297">A</text><rect fill="#F5F500" height="15" width="15" x="200" y="285" /><text fill="black" style="font-size:15px; font-family:Courier" x="203" y="297">G</text><text fill="black" style="font-size:10px; font-family:Courier" x="219.5" y="296">•</text><text fill="black" style="font-size:10px; font-family:Courier" x="234.5" y="296">•</text><text fill="black" style="font-size:10px; font-family:Courier" x="249.5" y="296">•</text><text fill="black" style="font-size:10px; font-family:Courier" x="264.5" y="296">•</text><text fill="black" style="font-size:10px; font-family:Courier" x="279.5" y="296">•</text><text fill="black" style="font-size:10px; font-family:Courier" x="294.5" y="296">•</text><text fill="black" style="font-size:10px; font-family:Courier" x="309.5" y="296">•</text><text fill="black" style="font-size:10px; font-family:Courier" x="324.5" y="296">•</text><text fill="black" style="font-size:10px; font-family:Courier" x="339.5" y="296">•</text><text fill="black" style="font-size:10px; font-family:Courier" x="354.5" y="296">•</text><text fill="black" style="font-size:15px; font-family:Courier" x="380" y="298">2</text><text fill="black" style="font-size:10px; font-family:Courier" x="24.5" y="311">•</text><text fill="black" style="font-size:10px; font-family:Courier" x="39.5" y="311">•</text><text fill="black" style="font-size:10px; font-family:Courier" x="54.5" y="311">•</text><text fill="black" style="font-size:10px; font-family:Courier" x="69.5" y="311">•</text><text fill="black" style="font-size:10px; font-family:Courier" x="84.5" y="311">•</text><rect fill="#00D118" height="15" width="15" x="95" y="300" /><text fill="black" style="font-size:15px; font-family:Courier" x="98" y="312">T</text><rect fill="#FF5454" height="15" width="15" x="110" y="300" /><text fill="black" style="font-size:15px; font-family:Courier" x="113" y="312">A</text><text fill="black" style="font-size:10px; font-family:Courier" x="129.5" y="311">•</text><text fill="black" style="font-size:10px; font-family:Courier" x="144.5" y="311">•</text><text fill="black" style="font-size:10px; font-family:Courier" x="159.5" y="311">•</text><text fill="black" style="font-size:10px; font-family:Courier" x="174.5" y="311">•</text><text fill="black" style="font-size:10px; font-family:Courier" x="189.5" y="311">•</text><rect fill="#F5F500" height="15" width="15" x="200" y="300" /><text fill="black" style="font-size:15px; font-family:Courier" x="203" y="312">G</text><text fill="black" style="font-size:10px; font-family:Courier" x="219.5" y="311">•</text><text fill="black" style="font-size:10px; font-family:Courier" x="234.5" y="311">•</text><text fill="black" style="font-size:10px; font-family:Courier" x="249.5" y="311">•</text><text fill="black" style="font-size:10px; font-family:Courier" x="264.5" y="311">•</text><rect fill="#00D118" height="15" width="15" x="275" y="300" /><text fill="black" style="font-size:15px; font-family:Courier" x="278" y="312">T</text><text fill="black" style="font-size:10px; font-family:Courier" x="294.5" y="311">•</text><text fill="black" style="font-size:10px; font-family:Courier" x="309.5" y="311">•</text><text fill="black" style="font-size:10px; font-family:Courier" x="324.5" y="311">•</text><text fill="black" style="font-size:10px; font-family:Courier" x="339.5" y="311">•</text><text fill="black" style="font-size:10px; font-family:Courier" x="354.5" y="311">•</text><text fill="black" style="font-size:15px; font-family:Courier" x="380" y="313">2</text></svg>